<svg width="96" height="28" viewBox="0 0 102 27" fill="none"
    xmlns="http://www.w3.org/2000/svg">
    <style>
        :root {
            --text-color: #212121;
        }
        @media (prefers-color-scheme: dark) {
            :root {
                --text-color: #ffffff;
            }
        }
    </style>
    <path fill-rule="evenodd" clip-rule="evenodd" d="M1.65793 0.790812C2.71021 -0.263604 4.4163 -0.263604 5.46858 0.790812L16.2467 11.5908C16.7521 12.0972 17.036 12.7839 17.036 13.5C17.036 14.2161 16.7521 14.9028 16.2467 15.4092L5.46858 26.2092C4.4163 27.2636 2.71021 27.2636 1.65793 26.2092C0.605642 25.1548 0.605643 23.4452 1.65793 22.3908L10.5308 13.5L1.65793 4.60919C0.605644 3.55477 0.605644 1.84523 1.65793 0.790812Z" fill="#4B9EFF"/>
    <path fill-rule="evenodd" clip-rule="evenodd" d="M12.4361 0.790812C13.4884 -0.263604 15.1945 -0.263604 16.2467 0.790812L27.0249 11.5908C27.5302 12.0972 27.8141 12.7839 27.8141 13.5C27.8141 14.2161 27.5302 14.9028 27.0249 15.4092L16.2467 26.2092C15.1945 27.2636 13.4884 27.2636 12.4361 26.2092C11.3838 25.1548 11.3838 23.4452 12.4361 22.3908L21.3089 13.5L12.4361 4.60919C11.3838 3.55477 11.3838 1.84523 12.4361 0.790812Z" fill="#306CB1"/>
    <path d="M37.3493 8.69685C36.8476 8.69685 36.435 8.55189 36.1116 8.26198C35.7994 7.96091 35.6433 7.59294 35.6433 7.15807C35.6433 6.71205 35.7994 6.34408 36.1116 6.05416C36.435 5.75309 36.8476 5.60256 37.3493 5.60256C37.84 5.60256 38.2414 5.75309 38.5536 6.05416C38.877 6.34408 39.0386 6.71205 39.0386 7.15807C39.0386 7.59294 38.877 7.96091 38.5536 8.26198C38.2414 8.55189 37.84 8.69685 37.3493 8.69685ZM38.771 9.66695V19H35.9109V9.66695H38.771ZM46.196 9.5666C47.2888 9.5666 48.1585 9.92342 48.8053 10.6371C49.4631 11.3395 49.7921 12.3096 49.7921 13.5474V19H46.9487V13.9321C46.9487 13.3076 46.787 12.8226 46.4636 12.4769C46.1403 12.1312 45.7054 11.9584 45.159 11.9584C44.6126 11.9584 44.1778 12.1312 43.8544 12.4769C43.531 12.8226 43.3693 13.3076 43.3693 13.9321V19H40.5092V9.66695H43.3693V10.9047C43.6593 10.4921 44.0495 10.1687 44.5402 9.93457C45.0308 9.68925 45.5827 9.5666 46.196 9.5666ZM56.6468 16.5747V19H55.1917C54.1547 19 53.3463 18.7491 52.7664 18.2473C52.1866 17.7344 51.8967 16.9037 51.8967 15.7552V12.042H50.7593V9.66695H51.8967V7.39223H54.7568V9.66695H56.6301V12.042H54.7568V15.7886C54.7568 16.0674 54.8237 16.2681 54.9575 16.3908C55.0913 16.5134 55.3143 16.5747 55.6265 16.5747H56.6468ZM66.7033 14.1829C66.7033 14.4506 66.6865 14.7293 66.6531 15.0192H60.1802C60.2248 15.5991 60.4088 16.0451 60.7321 16.3573C61.0666 16.6584 61.4736 16.8089 61.9531 16.8089C62.6668 16.8089 63.163 16.5078 63.4417 15.9057H66.4858C66.3297 16.519 66.0454 17.0709 65.6328 17.5616C65.2314 18.0522 64.724 18.4369 64.1108 18.7157C63.4975 18.9944 62.8117 19.1338 62.0535 19.1338C61.1391 19.1338 60.3251 18.9387 59.6115 18.5484C58.8979 18.1581 58.3403 17.6006 57.9389 16.8758C57.5375 16.151 57.3368 15.3036 57.3368 14.3335C57.3368 13.3634 57.5319 12.5159 57.9222 11.7911C58.3236 11.0664 58.8811 10.5088 59.5948 10.1186C60.3084 9.72828 61.128 9.53315 62.0535 9.53315C62.9567 9.53315 63.7595 9.72271 64.462 10.1018C65.1645 10.4809 65.7109 11.0218 66.1011 11.7242C66.5026 12.4267 66.7033 13.2463 66.7033 14.1829ZM63.7762 13.4303C63.7762 12.9397 63.609 12.5494 63.2745 12.2595C62.9399 11.9696 62.5218 11.8246 62.02 11.8246C61.5405 11.8246 61.1335 11.964 60.799 12.2427C60.4757 12.5215 60.275 12.9174 60.1969 13.4303H63.7762ZM70.7377 11.2225C71.0723 10.7095 71.4904 10.3081 71.9922 10.0182C72.494 9.71713 73.0515 9.5666 73.6648 9.5666V12.594H72.8786C72.165 12.594 71.6298 12.7501 71.273 13.0623C70.9161 13.3634 70.7377 13.8986 70.7377 14.668V19H67.8776V9.66695H70.7377V11.2225ZM74.1286 14.3168C74.1286 13.3578 74.3071 12.5159 74.6639 11.7911C75.0318 11.0664 75.528 10.5088 76.1525 10.1186C76.7769 9.72828 77.4738 9.53315 78.2432 9.53315C78.9011 9.53315 79.4754 9.66695 79.966 9.93457C80.4678 10.2022 80.8525 10.5534 81.1201 10.9883V9.66695H83.9802V19H81.1201V17.6787C80.8413 18.1135 80.451 18.4648 79.9493 18.7324C79.4586 19 78.8844 19.1338 78.2265 19.1338C77.4683 19.1338 76.7769 18.9387 76.1525 18.5484C75.528 18.147 75.0318 17.5839 74.6639 16.8591C74.3071 16.1231 74.1286 15.2757 74.1286 14.3168ZM81.1201 14.3335C81.1201 13.6198 80.9194 13.0567 80.5179 12.6442C80.1277 12.2316 79.6482 12.0253 79.0795 12.0253C78.5108 12.0253 78.0258 12.2316 77.6244 12.6442C77.2341 13.0456 77.039 13.6031 77.039 14.3168C77.039 15.0304 77.2341 15.5991 77.6244 16.0228C78.0258 16.4354 78.5108 16.6416 79.0795 16.6416C79.6482 16.6416 80.1277 16.4354 80.5179 16.0228C80.9194 15.6102 81.1201 15.0471 81.1201 14.3335ZM85.1462 14.3335C85.1462 13.3634 85.3413 12.5159 85.7316 11.7911C86.133 11.0664 86.685 10.5088 87.3874 10.1186C88.1011 9.72828 88.9151 9.53315 89.8294 9.53315C91.0002 9.53315 91.9759 9.83979 92.7565 10.4531C93.5481 11.0664 94.0666 11.9305 94.312 13.0456H91.2678C91.0114 12.3319 90.5152 11.9751 89.7792 11.9751C89.2552 11.9751 88.837 12.1814 88.5248 12.594C88.2126 12.9954 88.0565 13.5752 88.0565 14.3335C88.0565 15.0917 88.2126 15.6771 88.5248 16.0897C88.837 16.4911 89.2552 16.6918 89.7792 16.6918C90.5152 16.6918 91.0114 16.335 91.2678 15.6214H94.312C94.0666 16.7141 93.5481 17.5727 92.7565 18.1972C91.9648 18.8216 90.9891 19.1338 89.8294 19.1338C88.9151 19.1338 88.1011 18.9387 87.3874 18.5484C86.685 18.1581 86.133 17.6006 85.7316 16.8758C85.3413 16.151 85.1462 15.3036 85.1462 14.3335ZM100.709 16.5747V19H99.2539C98.2169 19 97.4085 18.7491 96.8287 18.2473C96.2489 17.7344 95.9589 16.9037 95.9589 15.7552V12.042H94.8216V9.66695H95.9589V7.39223H98.8191V9.66695H100.692V12.042H98.8191V15.7886C98.8191 16.0674 98.886 16.2681 99.0198 16.3908C99.1536 16.5134 99.3766 16.5747 99.6888 16.5747H100.709Z" fill="var(--text-color)"/>
</svg>